<svg id="Capa_1" data-name="Capa 1" xmlns="http://www.w3.org/2000/svg" viewBox="0 0 400 400"><defs><style>.cls-1{fill:#080808;}.cls-2,.cls-3{fill:#fff;}.cls-3{font-size:64px;font-family:Poppins-MediumItalic, Poppins;font-weight:500;font-style:italic;}</style></defs><circle class="cls-1" cx="199.62" cy="200.93" r="196.07" transform="translate(-83.61 200.01) rotate(-45)"/><path class="cls-2" d="M199.62,7.87A193,193,0,0,1,336.14,337.45,193.06,193.06,0,1,1,124.48,23,191.73,191.73,0,0,1,199.62,7.87m0-6C89.68,1.87.56,91,.56,200.93S89.68,400,199.62,400s199.07-89.12,199.07-199.07S309.56,1.87,199.62,1.87Z"/><text class="cls-3" transform="translate(190.59 70.29) rotate(6)">D</text><text class="cls-3" transform="matrix(0.89, 0.45, -0.45, 0.89, 234.76, 74.24)">O</text><text class="cls-3" transform="translate(278.72 94.18) rotate(50.6)">W</text><text class="cls-3" transform="matrix(0.28, 0.96, -0.96, 0.28, 316.57, 142.37)">N</text><text class="cls-3" transform="translate(327.76 184.72) rotate(89.07)">L</text><text class="cls-3" transform="translate(329.87 212.29) rotate(106.46)">O</text><text class="cls-3" transform="matrix(-0.59, 0.8, -0.8, -0.59, 315.97, 258.46)">A</text><text class="cls-3" transform="translate(291.38 292.54) rotate(145.53)">D</text><text class="cls-3" transform="translate(253.28 316.66) rotate(158.79)"> </text><text class="cls-3" transform="matrix(-0.99, 0.13, -0.13, -0.99, 240.75, 323.8)">C</text><text class="cls-3" transform="translate(194.37 330.32) rotate(-166.5)">O</text><text class="cls-3" transform="translate(147.54 318.84) rotate(-146.39)">V</text><text class="cls-3" transform="matrix(-0.64, -0.77, 0.77, -0.64, 112.45, 294.81)">E</text><text class="cls-3" transform="matrix(-0.42, -0.91, 0.91, -0.42, 91.61, 270.75)">R</text><text class="cls-3" transform="translate(76.95 236.15) rotate(-102.98)"> </text><text class="cls-3" transform="translate(73.06 221.91) rotate(-93.37)">L</text><text class="cls-3" transform="matrix(0.17, -0.99, 0.99, 0.17, 71.07, 194.2)">E</text><text class="cls-3" transform="translate(76.29 162.73) rotate(-65.53)">T</text><text class="cls-3" transform="matrix(0.63, -0.77, 0.77, 0.63, 90, 132.29)">T</text><text class="cls-3" transform="translate(111.16 106.39) rotate(-36.21)">E</text><text class="cls-3" transform="translate(136.53 87.17) rotate(-20.87)">R</text><path class="cls-2" d="M90.89,208.67V195.08c.32-2.59.57-5.18,1-7.76q6-40.83,37.09-67.91a108.36,108.36,0,0,1,117.23-15.79c46.08,22.17,70.39,71.74,59.7,121.75-9.1,42.53-44.54,76.42-87.47,83.59-4,.66-8,1.1-11.94,1.65H193.28a12,12,0,0,0-1.65-.33,106.38,106.38,0,0,1-46.76-14.54c-2.68-1.57-5.28-3.28-7.83-5.07a3.13,3.13,0,0,1,3.48-5.2,9.71,9.71,0,0,1,1.25.79,100.2,100.2,0,0,0,40.54,16.47c4.56.76,9.2,1.11,13.86,1.65V249.51c-.58.83-.89,1.3-1.22,1.76-8.19,11.13-19.16,17.61-32.94,18.46-16.76,1-31.83-4-45-14.35-3-2.33-5.69-5-8.52-7.53a14.19,14.19,0,0,0,1.38,3.2A104.12,104.12,0,0,0,129.07,276c1.68,1.61,1.85,3.51.61,4.87s-3.3,1.34-5-.33a107.09,107.09,0,0,1-32-59.69C91.88,216.8,91.45,212.72,90.89,208.67Zm156.17-3.44c.59.49.78.68,1,.83,12.24,8.68,18.74,20.51,19.31,35.51a61.22,61.22,0,0,1-2.62,19.89,3.1,3.1,0,0,1-3.85,2.43c-1.72-.38-2.62-1.91-2.26-3.94.18-1,.53-1.91.69-2.88.63-3.64,1.21-7.3,1.82-11H203v58.38c4.12-.75,8.06-1.2,11.86-2.2,16.29-4.28,28.78-13.74,37.57-28.1,1.6-2.61,3.26-3.38,5.07-2.34s2,2.93.36,5.7A68.11,68.11,0,0,1,246,292.13c-.2.19-.42.38-.61.58s-.37.43-.55.64A99.84,99.84,0,0,0,288,253.47a101,101,0,0,0,14-48.24Zm-149.51,0c.89,31.69,28.72,57.71,57.86,58V205.09H153c-5.38,0-10.76,0-16.14,0-2.37,0-3.69-1.26-3.68-3.2s1.33-3.11,3.72-3.13c4.25,0,8.49,0,12.74,0,.66,0,1.32-.06,2.48-.12l-1.43-1c-9.83-6.91-16.22-16.19-18.31-28C129.84,155,133,141.3,140,128.41a73.63,73.63,0,0,1,13.71-17.72,98.82,98.82,0,0,0-37.19,31.59,101.5,101.5,0,0,0-19.16,56.44h21.53a22.44,22.44,0,0,1,3.18.11,2.8,2.8,0,0,1,2.56,2.9,2.83,2.83,0,0,1-2.28,3.14,10.64,10.64,0,0,1-2.53.21c-6.65,0-13.3,0-20,0C99.06,205.09,98.3,205.16,97.55,205.2Zm105.34-50.9c.58-.74.89-1.16,1.23-1.56,1.63-2,3.18-4,4.92-5.84a3.13,3.13,0,0,1,5,3.57,7.93,7.93,0,0,1-1.31,1.65,36,36,0,0,0-8.27,14.17c-.74,2.45-1.13,5-1.7,7.65h34.13V139.82c-4.18,1.26-8,2.36-11.84,3.59-2.23.72-3.9.26-4.65-1.53s0-3.39,2.21-4.36A40.07,40.07,0,0,1,237,134,64.69,64.69,0,0,1,276.7,144.5c5.15,3.39,9.77,7.6,14.3,11.16a102,102,0,0,0-40.3-42.45A100.42,100.42,0,0,0,202.89,99.6Zm40.7-13.89v58.11h58.23C300.49,167,274,141.48,243.59,140.41ZM138.17,157.75h58V99.67C162.34,101.52,138.82,129.84,138.17,157.75Zm23.91,71.86v33.7c20.81-1.55,34.06-19.81,33.88-33.7Zm65.3,9.66h33.4c-1.23-18.33-16.83-33-33.4-33.89Zm-55.76-40.86v-34H138.26C138.65,179.85,152.39,197,171.62,198.41Zm24.26-17.75h-17.6V198.3C187.43,197.05,195.68,188.73,195.88,180.66Zm0,42.4c-.6-8.4-9.31-17-17.68-17.52v17.52Zm24.92-17.66c-9.37,1.37-17.47,9.62-17.52,17.68h17.52Zm-17.65-24.79c1,9.08,9.63,17.64,17.6,17.55V180.61Zm-3.61,9.71A29.62,29.62,0,0,1,188,201.94a29.45,29.45,0,0,1,11.59,11.57,29.21,29.21,0,0,1,11.5-11.64A29.25,29.25,0,0,1,199.57,190.32Zm-21.32-25.93V174h18v-9.57Zm42.53,65.24c-5.68,0-11.25,0-16.82,0-.39,0-1.11.55-1.12.86-.09,2.93-.05,5.87-.05,8.77h18Zm6.64-49.08v18H237v-18Zm-65.37,24.66V223h9.51V205.21Z"/></svg>